<?xml version="1.0" encoding="utf-8"?><svg xmlns="http://www.w3.org/2000/svg" xmlns:xlink="http://www.w3.org/1999/xlink" style="margin:auto;background:#521ac1;display:block;z-index:1;position:relative" width="1645" height="788" preserveAspectRatio="xMidYMid" viewBox="0 0 1645 788">
<g transform=""><defs>
  <path id="path-ex98aczr9du-1" d="M-35 -35L35 -35L35 35L-35 35Z" fill="none" stroke="inherit" stroke-width="6" transform="scale(0.5)"></path>
  <path id="path-ex98aczr9du-2" d="M0 -37A37 37 0 0 1 0 37A37 37 0 0 1 0 -37" fill="none" stroke="inherit" stroke-width="6" transform="scale(0.5)"></path>
  <path id="path-ex98aczr9du-3" d="M0 -34.641L40 34.641L-40 34.641Z" fill="none" stroke="inherit" stroke-width="6" transform="scale(0.5)"></path>
</defs><path id="path0" d="M 113.90209343761381 300.36572038083955
c 0 51.00062685606663 -12.478876783931195 14.649116224614882 -27.127993008546078 14.649116224614882
S 59.646107420521666 351.36634723690617 59.646107420521666 300.36572038083955
s 12.478876783931195 -14.649116224614882 27.127993008546078 -14.649116224614882
S 113.90209343761381 249.36509352477293 113.90209343761381 300.36572038083955
z" fill="none" stroke="none"></path>
<use xlink:href="#path-ex98aczr9du-3" x="0" y="0" stroke="#f8d16c">
  <animateMotion begin="-2.9975525408106685s" dur="18.523442813172668s" keyPoints="1;0" keyTimes="0;1" repeatCount="indefinite" calcMode="linear">
    <mpath xlink:href="#path0"></mpath>
  </animateMotion>
</use><path id="path1" d="M 185.8360343213316 98.67961637523761
c 0 56.3754286135716 -13.79398785225688 16.192942261345035 -29.986930113601915 16.192942261345035
S 125.86217409412777 155.05504498880921 125.86217409412777 98.67961637523761
s 13.79398785225688 -16.192942261345035 29.986930113601915 -16.192942261345035
S 185.8360343213316 42.304187761666014 185.8360343213316 98.67961637523761
z" fill="none" stroke="none"></path>
<use xlink:href="#path-ex98aczr9du-2" x="0" y="0" stroke="#fbfdd3">
  <animateMotion begin="-0.5313204625225254s" dur="19.07905406257162s" keyPoints="0;1" keyTimes="0;1" repeatCount="indefinite" calcMode="linear">
    <mpath xlink:href="#path1"></mpath>
  </animateMotion>
</use><path id="path2" d="M 261.7028819388027 237.91456927600044
c 0 64.84914143010265 -15.86734311587618 18.62688104907204 -34.49422416494822 18.62688104907204
S 192.71443360890623 302.7637107061031 192.71443360890623 237.91456927600044
s 15.86734311587618 -18.62688104907204 34.49422416494822 -18.62688104907204
S 261.7028819388027 173.06542784589777 261.7028819388027 237.91456927600044
z" fill="none" stroke="none"></path>
<use xlink:href="#path-ex98aczr9du-1" x="0" y="0" stroke="#fbfdd3">
  <animateMotion begin="-2.4941508804076564s" dur="16.045530826419046s" keyPoints="0;1" keyTimes="0;1" repeatCount="indefinite" calcMode="linear">
    <mpath xlink:href="#path2"></mpath>
  </animateMotion>
</use><path id="path3" d="M 319.9160968627438 672.6174243448471
c 0 37.57413309901167 -9.19367086465179 10.792570145460799 -19.98624101011259 10.792570145460799
S 279.9436148425187 710.1915574438588 279.9436148425187 672.6174243448471
s 9.19367086465179 -10.792570145460799 19.98624101011259 -10.792570145460799
S 319.9160968627438 635.0432912458355 319.9160968627438 672.6174243448471
z" fill="none" stroke="none"></path>
<use xlink:href="#path-ex98aczr9du-3" x="0" y="0" stroke="#f8d16c">
  <animateMotion begin="-3.8991539940789455s" dur="16.937098133409773s" keyPoints="1;0" keyTimes="0;1" repeatCount="indefinite" calcMode="linear">
    <mpath xlink:href="#path3"></mpath>
  </animateMotion>
</use><path id="path4" d="M 383.22886193614227 334.1101275370226
c 0 52.808911104249766 -12.921329312741962 15.168517019305783 -28.089846332047745 15.168517019305783
S 327.0491692720468 386.9190386412724 327.0491692720468 334.1101275370226
s 12.921329312741962 -15.168517019305783 28.089846332047745 -15.168517019305783
S 383.22886193614227 281.30121643277283 383.22886193614227 334.1101275370226
z" fill="none" stroke="none"></path>
<use xlink:href="#path-ex98aczr9du-2" x="0" y="0" stroke="#f8d16c">
  <animateMotion begin="-1.1129083095792236s" dur="12.72548251892413s" keyPoints="0;1" keyTimes="0;1" repeatCount="indefinite" calcMode="linear">
    <mpath xlink:href="#path4"></mpath>
  </animateMotion>
</use><path id="path5" d="M 430.6137162998473 352.83709485437566
c 0 35.47800427149371 -8.680788279195268 10.190490588620534 -18.871278867815803 10.190490588620534
S 392.87115856421565 388.3150991258694 392.87115856421565 352.83709485437566
s 8.680788279195268 -10.190490588620534 18.871278867815803 -10.190490588620534
S 430.6137162998473 317.35909058288195 430.6137162998473 352.83709485437566
z" fill="none" stroke="none"></path>
<use xlink:href="#path-ex98aczr9du-2" x="0" y="0" stroke="#f47a3c">
  <animateMotion begin="-0.4015998058112258s" dur="10.025724151727495s" keyPoints="0;1" keyTimes="0;1" repeatCount="indefinite" calcMode="linear">
    <mpath xlink:href="#path5"></mpath>
  </animateMotion>
</use><path id="path6" d="M 465.4824902029209 99.42861090814941
c 0 41.76460990030252 -10.219000294754869 11.996217737320936 -22.215218032075803 11.996217737320936
S 421.0520541387693 141.19322080845194 421.0520541387693 99.42861090814941
s 10.219000294754869 -11.996217737320936 22.215218032075803 -11.996217737320936
S 465.4824902029209 57.66400100784689 465.4824902029209 99.42861090814941
z" fill="none" stroke="none"></path>
<use xlink:href="#path-ex98aczr9du-2" x="0" y="0" stroke="#f8d16c">
  <animateMotion begin="-3.544010109830759s" dur="11.313633094843317s" keyPoints="1;0" keyTimes="0;1" repeatCount="indefinite" calcMode="linear">
    <mpath xlink:href="#path6"></mpath>
  </animateMotion>
</use><path id="path7" d="M 504.0471100908753 82.68315978223612
c 0 19.325872780416166 -4.728670999463529 5.551048564587622 -10.27971956405115 5.551048564587622
S 483.487670962773 102.00903256265228 483.487670962773 82.68315978223612
s 4.728670999463529 -5.551048564587622 10.27971956405115 -5.551048564587622
S 504.0471100908753 63.357287001819955 504.0471100908753 82.68315978223612
z" fill="none" stroke="none"></path>
<use xlink:href="#path-ex98aczr9du-2" x="0" y="0" stroke="#f47a3c">
  <animateMotion begin="-0.7981236534493463s" dur="15.537037770786569s" keyPoints="1;0" keyTimes="0;1" repeatCount="indefinite" calcMode="linear">
    <mpath xlink:href="#path7"></mpath>
  </animateMotion>
</use><path id="path8" d="M 623.4307096302437 128.84393590920206
c 0 59.03688616532192 -14.445195551089403 16.957403473017997 -31.402599024107403 16.957403473017997
S 560.6255115820288 187.88082207452396 560.6255115820288 128.84393590920206
s 14.445195551089403 -16.957403473017997 31.402599024107403 -16.957403473017997
S 623.4307096302437 69.80704974388014 623.4307096302437 128.84393590920206
z" fill="none" stroke="none"></path>
<use xlink:href="#path-ex98aczr9du-3" x="0" y="0" stroke="#fbfdd3">
  <animateMotion begin="-1.4694876543957847s" dur="19.223610565654145s" keyPoints="1;0" keyTimes="0;1" repeatCount="indefinite" calcMode="linear">
    <mpath xlink:href="#path8"></mpath>
  </animateMotion>
</use><path id="path9" d="M 714.5462556137428 502.5822224113903
c 0 57.20235186912367 -13.996320138189832 16.4304627709185 -30.426782909108333 16.4304627709185
S 653.6926897955262 559.784574280514 653.6926897955262 502.5822224113903
s 13.996320138189832 -16.4304627709185 30.426782909108333 -16.4304627709185
S 714.5462556137428 445.37987054226664 714.5462556137428 502.5822224113903
z" fill="none" stroke="none"></path>
<use xlink:href="#path-ex98aczr9du-2" x="0" y="0" stroke="#fbfdd3">
  <animateMotion begin="-0.8567946885845734s" dur="18.36566221229584s" keyPoints="1;0" keyTimes="0;1" repeatCount="indefinite" calcMode="linear">
    <mpath xlink:href="#path9"></mpath>
  </animateMotion>
</use><path id="path10" d="M 766.2264563874671 382.33658492827976
c 0 55.50560799400055 -13.581159402787366 15.943100168489519 -29.524259571276886 15.943100168489519
S 707.1779372449134 437.84219292228033 707.1779372449134 382.33658492827976
s 13.581159402787366 -15.943100168489519 29.524259571276886 -15.943100168489519
S 766.2264563874671 326.8309769342792 766.2264563874671 382.33658492827976
z" fill="none" stroke="none"></path>
<use xlink:href="#path-ex98aczr9du-2" x="0" y="0" stroke="#fbfdd3">
  <animateMotion begin="-4.708569676822387s" dur="12.234609230936744s" keyPoints="0;1" keyTimes="0;1" repeatCount="indefinite" calcMode="linear">
    <mpath xlink:href="#path10"></mpath>
  </animateMotion>
</use><path id="path11" d="M 795.0335607269167 116.13351464264501
c 0 55.17977765298073 -13.50143495764422 15.849510602451913 -29.350945560096132 15.849510602451913
S 736.3316696067245 171.31329229562573 736.3316696067245 116.13351464264501
s 13.50143495764422 -15.849510602451913 29.350945560096132 -15.849510602451913
S 795.0335607269167 60.95373698966428 795.0335607269167 116.13351464264501
z" fill="none" stroke="none"></path>
<use xlink:href="#path-ex98aczr9du-1" x="0" y="0" stroke="#f47a3c">
  <animateMotion begin="-1.7386476002560614s" dur="12.745795384877352s" keyPoints="0;1" keyTimes="0;1" repeatCount="indefinite" calcMode="linear">
    <mpath xlink:href="#path11"></mpath>
  </animateMotion>
</use><path id="path12" d="M 879.881552016444 719.1716876783985
c 0 54.83064804718177 -13.41600962856575 15.749228694403273 -29.165238322969024 15.749228694403273
S 821.5510753705059 774.0023357255802 821.5510753705059 719.1716876783985
s 13.41600962856575 -15.749228694403273 29.165238322969024 -15.749228694403273
S 879.881552016444 664.3410396312167 879.881552016444 719.1716876783985
z" fill="none" stroke="none"></path>
<use xlink:href="#path-ex98aczr9du-1" x="0" y="0" stroke="#f8d16c">
  <animateMotion begin="-4.866987744213197s" dur="12.136194306794739s" keyPoints="1;0" keyTimes="0;1" repeatCount="indefinite" calcMode="linear">
    <mpath xlink:href="#path12"></mpath>
  </animateMotion>
</use><path id="path13" d="M 953.871078866208 646.1973351795586
c 0 52.68568501526925 -12.891178248416944 15.133122291619891 -28.024300540036833 15.133122291619891
S 897.8224777861343 698.8830201948278 897.8224777861343 646.1973351795586
s 12.891178248416944 -15.133122291619891 28.024300540036833 -15.133122291619891
S 953.871078866208 593.5116501642894 953.871078866208 646.1973351795586
z" fill="none" stroke="none"></path>
<use xlink:href="#path-ex98aczr9du-2" x="0" y="0" stroke="#f8d16c">
  <animateMotion begin="-4.291921025355613s" dur="10.29200815980034s" keyPoints="0;1" keyTimes="0;1" repeatCount="indefinite" calcMode="linear">
    <mpath xlink:href="#path13"></mpath>
  </animateMotion>
</use><path id="path14" d="M 970.0168209137815 233.564781050737
c 0 28.91978801853857 -7.0761183449615634 8.306747622346185 -15.382865967307747 8.306747622346185
S 939.251088979166 262.48456906927555 939.251088979166 233.564781050737
s 7.0761183449615634 -8.306747622346185 15.382865967307747 -8.306747622346185
S 970.0168209137815 204.64499303219844 970.0168209137815 233.564781050737
z" fill="none" stroke="none"></path>
<use xlink:href="#path-ex98aczr9du-3" x="0" y="0" stroke="#f47a3c">
  <animateMotion begin="-3.389036160725177s" dur="18.31497841749494s" keyPoints="0;1" keyTimes="0;1" repeatCount="indefinite" calcMode="linear">
    <mpath xlink:href="#path14"></mpath>
  </animateMotion>
</use><path id="path15" d="M 1091.2320931840763 189.0914875687931
c 0 44.10845246705622 -10.792493688747797 12.669449112877851 -23.461942801625646 12.669449112877851
S 1044.3082075808252 233.19994003584932 1044.3082075808252 189.0914875687931
s 10.792493688747797 -12.669449112877851 23.461942801625646 -12.669449112877851
S 1091.2320931840763 144.98303510173687 1091.2320931840763 189.0914875687931
z" fill="none" stroke="none"></path>
<use xlink:href="#path-ex98aczr9du-2" x="0" y="0" stroke="#fbfdd3">
  <animateMotion begin="-4.168387808922885s" dur="12.98215591782171s" keyPoints="1;0" keyTimes="0;1" repeatCount="indefinite" calcMode="linear">
    <mpath xlink:href="#path15"></mpath>
  </animateMotion>
</use><path id="path16" d="M 1170.5645233246698 96.50509096967457
c 0 57.22041024284244 -14.00073867644017 16.43564975060368 -30.436388427043852 16.43564975060368
S 1109.6917464705823 153.725501212517 1109.6917464705823 96.50509096967457
s 14.00073867644017 -16.43564975060368 30.436388427043852 -16.43564975060368
S 1170.5645233246698 39.28468072683213 1170.5645233246698 96.50509096967457
z" fill="none" stroke="none"></path>
<use xlink:href="#path-ex98aczr9du-3" x="0" y="0" stroke="#f8d16c">
  <animateMotion begin="-0.6021267195233415s" dur="19.804815532052164s" keyPoints="1;0" keyTimes="0;1" repeatCount="indefinite" calcMode="linear">
    <mpath xlink:href="#path16"></mpath>
  </animateMotion>
</use><path id="path17" d="M 1161.6425194048009 695.1271822411774
c 0 24.404050324437204 -5.971203802787826 7.009674029359623 -12.98087783214745 7.009674029359623
S 1135.680763740506 719.5312325656146 1135.680763740506 695.1271822411774
s 5.971203802787826 -7.009674029359623 12.98087783214745 -7.009674029359623
S 1161.6425194048009 670.7231319167402 1161.6425194048009 695.1271822411774
z" fill="none" stroke="none"></path>
<use xlink:href="#path-ex98aczr9du-1" x="0" y="0" stroke="#f47a3c">
  <animateMotion begin="-4.08605200793396s" dur="15.799501857000696s" keyPoints="1;0" keyTimes="0;1" repeatCount="indefinite" calcMode="linear">
    <mpath xlink:href="#path17"></mpath>
  </animateMotion>
</use><path id="path18" d="M 1266.0258766337092 38.26318623587176
c 0 22.46364889875266 -5.496424730545863 6.4523246836842745 -11.948749414230138 6.4523246836842745
S 1242.1283778052489 60.726835134624416 1242.1283778052489 38.26318623587176
s 5.496424730545863 -6.4523246836842745 11.948749414230138 -6.4523246836842745
S 1266.0258766337092 15.799537337119098 1266.0258766337092 38.26318623587176
z" fill="none" stroke="none"></path>
<use xlink:href="#path-ex98aczr9du-2" x="0" y="0" stroke="#f8d16c">
  <animateMotion begin="-2.101448353280394s" dur="12.55719692158861s" keyPoints="1;0" keyTimes="0;1" repeatCount="indefinite" calcMode="linear">
    <mpath xlink:href="#path18"></mpath>
  </animateMotion>
</use><path id="path19" d="M 1350.123948932005 278.1549129131301
c 0 35.61448305438824 -8.714182023946057 10.229691941154067 -18.943873965100124 10.229691941154067
S 1312.2362010018046 313.76939596751834 1312.2362010018046 278.1549129131301
s 8.714182023946057 -10.229691941154067 18.943873965100124 -10.229691941154067
S 1350.123948932005 242.54042985874185 1350.123948932005 278.1549129131301
z" fill="none" stroke="none"></path>
<use xlink:href="#path-ex98aczr9du-3" x="0" y="0" stroke="#fbfdd3">
  <animateMotion begin="-1.3478133492356814s" dur="16.20539026082279s" keyPoints="1;0" keyTimes="0;1" repeatCount="indefinite" calcMode="linear">
    <mpath xlink:href="#path19"></mpath>
  </animateMotion>
</use><path id="path20" d="M 1407.1289348078624 283.568650736606
c 0 40.76775487887688 -9.975088959725193 11.709887039677403 -21.684975999402596 11.709887039677403
S 1363.758982809057 324.3364056154829 1363.758982809057 283.568650736606
s 9.975088959725193 -11.709887039677403 21.684975999402596 -11.709887039677403
S 1407.1289348078624 242.80089585772913 1407.1289348078624 283.568650736606
z" fill="none" stroke="none"></path>
<use xlink:href="#path-ex98aczr9du-3" x="0" y="0" stroke="#fbfdd3">
  <animateMotion begin="-0.14092421601642924s" dur="19.550621250784513s" keyPoints="1;0" keyTimes="0;1" repeatCount="indefinite" calcMode="linear">
    <mpath xlink:href="#path20"></mpath>
  </animateMotion>
</use><path id="path21" d="M 1496.0959412889704 196.7486131291373
c 0 61.170178954295984 -14.96717144626391 17.57015778474459 -32.5373292310085 17.57015778474459
S 1431.0212828269534 257.9187920834333 1431.0212828269534 196.7486131291373
s 14.96717144626391 -17.57015778474459 32.5373292310085 -17.57015778474459
S 1496.0959412889704 135.57843417484133 1496.0959412889704 196.7486131291373
z" fill="none" stroke="none"></path>
<use xlink:href="#path-ex98aczr9du-1" x="0" y="0" stroke="#f47a3c">
  <animateMotion begin="-3.5019955711220674s" dur="16.198496314228624s" keyPoints="0;1" keyTimes="0;1" repeatCount="indefinite" calcMode="linear">
    <mpath xlink:href="#path21"></mpath>
  </animateMotion>
</use><path id="path22" d="M 1553.7811709244231 736.3362739624577
c 0 62.11214000676564 -15.197651278251167 17.84072106577311 -33.03837234402428 17.84072106577311
S 1487.7044262363745 798.4484139692233 1487.7044262363745 736.3362739624577
s 15.197651278251167 -17.84072106577311 33.03837234402428 -17.84072106577311
S 1553.7811709244231 674.224133955692 1553.7811709244231 736.3362739624577
z" fill="none" stroke="none"></path>
<use xlink:href="#path-ex98aczr9du-2" x="0" y="0" stroke="#f8d16c">
  <animateMotion begin="-3.641182512621759s" dur="13.586045943340455s" keyPoints="0;1" keyTimes="0;1" repeatCount="indefinite" calcMode="linear">
    <mpath xlink:href="#path22"></mpath>
  </animateMotion>
</use><path id="path23" d="M 1585.9454509298207 629.8171101558162
c 0 47.4541392233001 -11.611119171658535 13.630444244990455 -25.24156341664899 13.630444244990455
S 1535.462324096523 677.2712493791163 1535.462324096523 629.8171101558162
s 11.611119171658535 -13.630444244990455 25.24156341664899 -13.630444244990455
S 1585.9454509298207 582.3629709325161 1585.9454509298207 629.8171101558162
z" fill="none" stroke="none"></path>
<use xlink:href="#path-ex98aczr9du-1" x="0" y="0" stroke="#f8d16c">
  <animateMotion begin="-1.8138503949649698s" dur="13.806485060812136s" keyPoints="0;1" keyTimes="0;1" repeatCount="indefinite" calcMode="linear">
    <mpath xlink:href="#path23"></mpath>
  </animateMotion>
</use></g>
</svg>